<svg aria-hidden="true" style="position:absolute;width:0;height:0;overflow:hidden" xmlns="http://www.w3.org/2000/svg">
    <defs>
        <symbol id="icon-stats" viewBox="0 0 32 32">
            <path fill="#339" style="fill:var(--color1, #339)"
                d="M3.119 14.019c.125-.031 12.013-2.813 22.625-7.144l-.85 2.069c-.269.65.044 1.406.7 1.662.75.3 1.481-.169 1.663-.7L29.426 4.6c.131-.313.125-.669-.006-.981s-.381-.563-.7-.688L23.376.775a1.277 1.277 0 1 0-.957 2.369L25.282 4.3C14.751 8.669 2.669 11.5 2.544 11.531a1.27 1.27 0 0 0-.956 1.531c.137.587.769 1.144 1.531.956zM29.931 28.762V13.868c0-.706-.569-1.275-1.275-1.275s-1.275.569-1.275 1.275v14.888h-5.994V15.775c0-.706-.569-1.275-1.275-1.275s-1.275.569-1.275 1.275v12.988h-5.994V17.675c0-.706-.569-1.275-1.275-1.275s-1.275.569-1.275 1.275v11.088h-6v-8.55c0-.706-.569-1.275-1.275-1.275s-1.275.569-1.275 1.275v8.569a1.275 1.275 0 0 0 .219 2.531h28.075c.706 0 1.275-.569 1.275-1.275s-.606-1.312-1.381-1.275z" />
        </symbol>
        <symbol id="icon-pie-chart" viewBox="0 0 32 32">
            <path fill="#339" style="fill:var(--color1, #339)"
                d="M17.925 31.312c-7.381 0-13.387-6.006-13.387-13.387 0-.706.569-1.275 1.275-1.275h10.831V5.819c0-.706.569-1.275 1.275-1.275 7.381 0 13.387 6.006 13.387 13.387.006 7.375-6 13.381-13.381 13.381zM7.169 19.2c.631 5.375 5.219 9.556 10.756 9.556 5.975 0 10.831-4.863 10.831-10.831 0-5.544-4.181-10.125-9.556-10.756v10.756c0 .706-.569 1.275-1.275 1.275H7.169z" />
            <path fill="#339" style="fill:var(--color1, #339)"
                d="M14.075 15.35H1.962a1.273 1.273 0 0 1-1.275-1.275C.687 6.694 6.693.688 14.074.688c.706 0 1.275.569 1.275 1.275v12.113c0 .706-.569 1.275-1.275 1.275zM3.313 12.8h9.481V3.312C7.844 3.899 3.9 7.843 3.313 12.8z" />
        </symbol>
        <symbol id="icon-scale" viewBox="0 0 32 32">
            <path fill="#339" style="fill:var(--color1, #339)"
                d="M14.277 15.973c-.11-.061-.214-.21-9.202-7.127l.356 2.317c.114.728-.338 1.429-1.005 1.538-.763.132-1.347-.519-1.404-1.106l-.903-5.939c-.056-.351.025-.714.213-1.003s.475-.487.798-.54l5.442-.957c.668-.115 1.296.379 1.402 1.112s-.342 1.421-1.01 1.536l-2.916.514c8.905 6.936 9.179 7.182 9.289 7.243.609.321.866 1.125.569 1.791-.252.569-.959.991-1.631.621zM15.737 18.536c-.084.099-.243.168-8.759 7.763l2.143.244c.674.075 1.174.736 1.092 1.466-.087.837-.819 1.276-1.352 1.179l-5.493-.637c-.325-.034-.625-.216-.83-.492s-.304-.628-.264-.983l.607-5.972c.076-.732.681-1.26 1.358-1.176s1.165.739 1.089 1.471l-.324 3.199c8.511-7.502 8.801-7.723 8.884-7.823a1.161 1.161 0 0 1 1.736-.119c.436.417.62 1.272.113 1.879zM16.402 14.05c.075-.107.229-.191 8.097-8.574l-2.155-.037c-.678-.01-1.229-.621-1.206-1.355.019-.842.712-1.349 1.252-1.304l5.523.107c.327.003.64.156.866.41s.353.597.343.954l-.121 6.007c-.017.737-.576 1.321-1.257 1.302s-1.221-.624-1.204-1.361l.064-3.218c-7.87 8.29-8.142 8.539-8.217 8.646-.4.594-1.172.724-1.719.286-.468-.374-.721-1.207-.265-1.861zM18.078 16.592c.115.049.232.186 9.808 6.092l-.566-2.266c-.18-.712.206-1.459.859-1.639.747-.214 1.387.37 1.498.948l1.442 5.811c.088.343.041.713-.12 1.021s-.428.536-.745.624l-5.328 1.543c-.654.187-1.324-.236-1.497-.954s.211-1.451.865-1.639l2.854-.828c-9.495-5.934-9.79-6.149-9.905-6.198-.635-.253-.964-1.026-.73-1.72.199-.594.864-1.09 1.566-.795z" />
        </symbol>
        <symbol id="icon-star" viewBox="0 0 32 32">
            <path fill="none" stroke="#339" style="stroke:var(--color1, #339)" stroke-width="2.667"
                d="M30.667 16c0 8.1-6.567 14.667-14.667 14.667S1.333 24.101 1.333 16C1.333 7.9 7.899 1.333 16 1.333S30.667 7.899 30.667 16z" />
            <path fill="none" stroke="#339" style="stroke:var(--color1, #339)" stroke-width="2.667"
                d="m14.24 12.506 1.6-2.973 1.6 2.973a2.398 2.398 0 0 0 1.685 1.224l3.322.603-2.333 2.44a2.402 2.402 0 0 0-.644 1.98l.453 3.346-3.042-1.465a2.398 2.398 0 0 0-2.082 0l-3.042 1.465.453-3.346a2.4 2.4 0 0 0-.643-1.98l-2.333-2.44 3.322-.603a2.398 2.398 0 0 0 1.685-1.224z" />
        </symbol>
        <symbol id="icon-social-2" viewBox="0 0 32 32">
            <path fill="#339" style="fill:var(--color1, #339)"
                d="m23.446 18 .889-5.791h-5.557V8.451c0-1.584.776-3.129 3.265-3.129h2.526V.392S22.277.001 20.085.001c-4.576 0-7.567 2.774-7.567 7.795v4.414H7.431v5.791h5.087v14h6.26v-14L23.446 18z" />
        </symbol>
        <symbol id="icon-social-1" viewBox="0 0 32 32">
            <path fill="#339" style="fill:var(--color1, #339)"
                d="M9.953 1.421c1.564-.072 2.063-.088 6.047-.088s4.483.017 6.045.088c1.563.071 2.629.32 3.563.681a7.218 7.218 0 0 1 2.597 1.693 7.158 7.158 0 0 1 1.691 2.596c.363.933.611 2 .683 3.56.072 1.567.088 2.065.088 6.048 0 3.984-.017 4.483-.088 6.047-.071 1.56-.32 2.627-.683 3.56a7.19 7.19 0 0 1-1.691 2.599 7.187 7.187 0 0 1-2.597 1.691c-.933.363-2 .611-3.56.683-1.565.072-2.064.088-6.048.088s-4.483-.017-6.047-.088c-1.56-.071-2.627-.32-3.56-.683a7.19 7.19 0 0 1-2.599-1.691 7.185 7.185 0 0 1-1.692-2.597c-.361-.933-.609-2-.681-3.56-.072-1.567-.088-2.065-.088-6.048 0-3.984.017-4.483.088-6.045s.32-2.629.681-3.563a7.192 7.192 0 0 1 1.693-2.597 7.195 7.195 0 0 1 2.596-1.692c.933-.361 2-.609 3.56-.681h.001zm11.974 2.64C20.38 3.99 19.916 3.976 16 3.976s-4.38.015-5.927.085c-1.431.065-2.207.304-2.724.505a4.57 4.57 0 0 0-1.687 1.096 4.543 4.543 0 0 0-1.096 1.687c-.201.517-.44 1.293-.505 2.724-.071 1.547-.085 2.011-.085 5.927s.015 4.38.085 5.927c.065 1.431.304 2.207.505 2.724a4.56 4.56 0 0 0 1.096 1.687 4.551 4.551 0 0 0 1.687 1.096c.517.201 1.293.44 2.724.505 1.547.071 2.009.085 5.927.085s4.38-.015 5.927-.085c1.431-.065 2.207-.304 2.724-.505a4.57 4.57 0 0 0 1.687-1.096 4.551 4.551 0 0 0 1.096-1.687c.201-.517.44-1.293.505-2.724.071-1.547.085-2.011.085-5.927s-.015-4.38-.085-5.927c-.065-1.431-.304-2.207-.505-2.724a4.57 4.57 0 0 0-1.096-1.687 4.543 4.543 0 0 0-1.687-1.096c-.517-.201-1.293-.44-2.724-.505zm-7.8 16.46a4.895 4.895 0 0 0 6.749-5 4.891 4.891 0 0 0-1.415-2.981 4.887 4.887 0 0 0-3.94-1.408 4.897 4.897 0 0 0-4.204 6.289 4.898 4.898 0 0 0 2.808 3.101zm-3.458-9.852a7.538 7.538 0 1 1 10.66 10.661 7.538 7.538 0 0 1-10.66-10.661zm14.542-1.085a1.785 1.785 0 0 0-.553-2.948 1.772 1.772 0 0 0-1.967.428 1.781 1.781 0 0 0 1.271 3.006c.464.007.912-.167 1.249-.486z" />
        </symbol>
        <symbol id="icon-social" viewBox="0 0 32 32">
            <path fill="#339" style="fill:var(--color1, #339)"
                d="M4 28.801h4.8v-17.76H4v17.76zm2.4-25.6c-1.6 0-2.88 1.28-2.88 2.88s1.28 2.88 2.88 2.88c1.6 0 2.88-1.28 2.88-2.88S8 3.201 6.4 3.201zm10.56 10.56v-2.72h-4.8v17.76h4.8v-9.12c0-5.12 6.56-5.44 6.56 0v9.12h4.8v-10.88c0-8.64-9.12-8.32-11.36-4.16z" />
        </symbol>
        <symbol id="icon-megaphone" viewBox="0 0 32 32">
            <path fill="#009" style="fill:var(--color1, #009)"
                d="M8.5 10.344H4.731a.937.937 0 0 0 .018 1.875h3.769a.937.937 0 0 0-.018-1.875zM8.5 14.094H4.731a.937.937 0 0 0 .018 1.875h3.769a.937.937 0 0 0-.018-1.875z" />
            <path fill="#009" style="fill:var(--color1, #009)"
                d="M28.25 8.563V3.781A2.816 2.816 0 0 0 25.438.968a2.815 2.815 0 0 0-2.801 2.568c-1.84.935-6.049 3.057-10.306 3.057H4.688A4.693 4.693 0 0 0 0 11.281v3.75a4.693 4.693 0 0 0 4.688 4.688h1v8.5c0 1.551 1.262 2.812 2.812 2.812s2.813-1.262 2.813-2.812v-4.75h.937a2.816 2.816 0 0 0 2.813-2.812v-.67c3.211.598 6.113 2.051 7.574 2.791a2.816 2.816 0 0 0 2.801 2.567 2.815 2.815 0 0 0 2.812-2.812v-4.782c2.137-.436 3.75-2.329 3.75-4.593S30.387 9 28.25 8.565zM9.438 28.219a.938.938 0 0 1-1.875 0v-8.5h1.875v8.5zm-4.75-10.375a2.816 2.816 0 0 1-2.813-2.813v-3.75a2.816 2.816 0 0 1 2.813-2.813h6.625v9.375H4.688zm8.5 2.812a.938.938 0 0 1-.938.937h-.937v-1.875c.928 0 1.284-.01 1.875.028v.909zm9.437.019c-2.099-1.028-5.669-2.592-9.438-2.806V8.444c3.794-.214 7.355-1.78 9.438-2.804v15.035zm3.75 1.856a.938.938 0 0 1-1.875 0V3.781a.938.938 0 0 1 1.875 0v18.75zm1.875-6.723v-5.304c1.091.387 1.875 1.43 1.875 2.652s-.784 2.265-1.875 2.652z" />
        </symbol>
        <symbol id="icon-good-review-1" viewBox="0 0 32 32">
            <path fill="#009" style="fill:var(--color1, #009)"
                d="M29.188 1H2.813A2.816 2.816 0 0 0 0 3.813v18.75a2.815 2.815 0 0 0 2.813 2.812h2.875v4.688a.937.937 0 0 0 1.601.663l5.35-5.35h16.549A2.815 2.815 0 0 0 32 22.564V3.814a2.816 2.816 0 0 0-2.812-2.813zm.937 21.563a.94.94 0 0 1-.937.938H12.25a.937.937 0 0 0-.663.275L7.562 27.8v-3.362a.937.937 0 0 0-.937-.937H2.812a.94.94 0 0 1-.938-.938V3.813a.94.94 0 0 1 .938-.938h26.375c.517 0 .937.421.937.938v18.75z" />
            <path fill="#009" style="fill:var(--color1, #009)"
                d="M16 4.75c-4.652 0-8.438 3.785-8.438 8.438s3.785 8.438 8.438 8.438 8.438-3.785 8.438-8.438c0-4.652-3.785-8.438-8.438-8.438zm0 15c-3.619 0-6.563-2.944-6.563-6.563S12.381 6.624 16 6.624c3.619 0 6.563 2.944 6.563 6.563S19.619 19.75 16 19.75z" />
            <path fill="#009" style="fill:var(--color1, #009)"
                d="M19.315 15.176a.938.938 0 0 0-1.326 0c-.53.53-1.237.822-1.989.822s-1.459-.292-1.989-.822a.938.938 0 0 0-1.326 1.326c.884.884 2.062 1.371 3.315 1.371s2.43-.487 3.315-1.371a.938.938 0 0 0 0-1.326zM13.188 12.25a.937.937 0 1 0 0-1.874.937.937 0 0 0 0 1.874zM18.812 12.25a.938.938 0 1 0 0-1.876.938.938 0 0 0 0 1.876z" />
        </symbol>
        <symbol id="icon-rating" viewBox="0 0 32 32">
            <path fill="#009" style="fill:var(--color1, #009)"
                d="M27.25 17c-.366 0-.715.07-1.036.198a2.818 2.818 0 0 0-2.714-2.073c-.72 0-1.377.272-1.875.718a2.802 2.802 0 0 0-2.813-.557v-2.973c0-1.551-1.262-2.812-2.812-2.812s-2.812 1.262-2.812 2.812v9.148l-.436-.436c-1.099-1.099-2.878-1.099-3.977 0s-1.099 2.878 0 3.977l6.724 6.724a.937.937 0 0 0 .663.275h11.089a.939.939 0 0 0 .875-.6 28.835 28.835 0 0 0 1.938-10.413v-1.174a2.815 2.815 0 0 0-2.813-2.812zm.938 3.987c0 3.129-.534 6.2-1.589 9.138H16.55l-6.449-6.449a.938.938 0 0 1 1.326-1.326l2.036 2.036a.938.938 0 0 0 1.601-.663V12.312c0-.517.421-.938.937-.938s.937.421.937.938v7.5a.938.938 0 0 0 1.875 0v-1.875a.938.938 0 0 1 1.875 0v1.875a.938.938 0 0 0 1.875 0v-1.875a.938.938 0 0 1 1.875 0v1.875a.938.938 0 1 0 1.875 0 .938.938 0 0 1 1.875 0v1.174zM9.33 3.312a.937.937 0 0 0-.761-.642l-2.107-.299L5.524.515a.938.938 0 0 0-1.674 0l-.938 1.856-2.107.299A.936.936 0 0 0 .29 4.277l1.511 1.438-.356 2.025a.938.938 0 0 0 1.351.996l1.889-.97 1.89.97a.938.938 0 0 0 1.351-.996L7.57 5.715l1.511-1.438a.94.94 0 0 0 .247-.965zM5.916 4.703a.938.938 0 0 0-.277.841l.116.662-.64-.329a.937.937 0 0 0-.856 0l-.64.328.116-.662a.938.938 0 0 0-.277-.841l-.472-.449.674-.096a.939.939 0 0 0 .705-.505l.322-.637.322.637a.936.936 0 0 0 .705.505l.674.096-.472.449zM20.643 3.312a.937.937 0 0 0-.761-.642l-2.107-.299-.938-1.856a.938.938 0 0 0-1.674 0l-.938 1.856-2.107.299a.936.936 0 0 0-.515 1.607l1.511 1.438-.356 2.025a.938.938 0 0 0 1.351.996l1.89-.97 1.889.97a.938.938 0 0 0 1.351-.996l-.356-2.025 1.511-1.438a.938.938 0 0 0 .246-.965zm-3.414 1.391a.938.938 0 0 0-.277.841l.116.662-.64-.328a.937.937 0 0 0-.856 0l-.64.328.116-.662a.938.938 0 0 0-.277-.841l-.472-.449.674-.096a.939.939 0 0 0 .705-.505L16 3.016l.322.637a.935.935 0 0 0 .705.505l.674.096-.472.449zM31.955 3.312a.937.937 0 0 0-.761-.642l-2.107-.299-.938-1.856a.938.938 0 0 0-1.674 0l-.938 1.856-2.107.299a.936.936 0 0 0-.515 1.607l1.511 1.438-.356 2.025a.938.938 0 0 0 1.351.996l1.89-.97 1.89.97a.938.938 0 0 0 1.351-.996l-.356-2.025 1.511-1.438a.938.938 0 0 0 .246-.965zm-3.414 1.391a.938.938 0 0 0-.277.841l.116.662-.64-.329a.937.937 0 0 0-.856 0l-.64.328.116-.662a.938.938 0 0 0-.277-.841l-.472-.449.674-.096a.939.939 0 0 0 .705-.505l.322-.637.322.637a.935.935 0 0 0 .705.505l.674.096-.472.449z" />
        </symbol>
    </defs>
</svg>